<?xml version="1.0" standalone="no"?>
<!DOCTYPE svg PUBLIC "-//W3C//DTD SVG 20010904//EN"
 "http://www.w3.org/TR/2001/REC-SVG-20010904/DTD/svg10.dtd">
<svg version="1.0" xmlns="http://www.w3.org/2000/svg"
 width="1568.000000pt" height="1568.000000pt" viewBox="0 0 1568.000000 1568.000000"
 preserveAspectRatio="xMidYMid meet">
<metadata>
Created by potrace 1.14, written by Peter Selinger 2001-2017
</metadata>
<g transform="translate(0.000000,1568.000000) scale(0.100000,-0.100000)"
fill="#000000" stroke="none">
<path d="M5818 11919 c-52 -8 -99 -39 -133 -88 l-30 -43 -2 -388 c-1 -268 2
-399 10 -425 22 -72 111 -136 188 -134 24 0 248 0 284 -1 11 0 45 1 75 1 64 1
66 1 103 -4 15 -2 30 0 33 5 3 4 10 6 15 2 6 -3 41 -5 77 -4 82 2 81 2 115 -3
15 -2 27 0 27 5 0 5 4 6 10 3 5 -3 56 -6 112 -5 57 0 110 1 118 1 66 0 259 0
275 -1 11 0 45 1 75 1 64 1 66 1 103 -4 15 -2 30 0 33 5 3 4 10 6 15 2 6 -3
41 -5 77 -4 82 2 81 2 115 -3 15 -2 27 0 27 5 0 5 4 6 10 3 5 -3 56 -6 112 -5
57 0 110 1 118 1 66 0 259 0 275 -1 11 0 45 1 75 1 64 1 66 1 103 -4 15 -2 30
0 33 5 3 4 10 6 15 2 6 -3 41 -5 77 -4 82 2 81 2 115 -3 15 -2 27 0 27 5 0 5
4 6 10 3 5 -3 56 -6 112 -5 57 0 110 1 118 1 66 0 259 0 275 -1 11 0 45 1 75
1 64 1 66 1 103 -4 15 -2 30 0 33 5 3 4 10 6 15 2 6 -3 41 -5 77 -4 82 2 81 2
115 -3 15 -2 27 0 27 5 0 5 4 6 10 3 5 -3 56 -6 112 -5 57 0 110 1 118 1 66 0
259 0 275 -1 11 0 45 1 75 1 64 1 66 1 103 -4 15 -2 30 0 33 5 3 4 10 6 15 2
6 -3 41 -5 77 -4 82 2 81 2 115 -3 15 -2 27 0 27 5 0 5 4 6 10 3 5 -3 56 -6
112 -5 57 0 110 1 118 1 66 0 259 0 275 -1 11 0 45 1 75 1 64 1 66 1 103 -4
15 -2 30 0 33 5 3 4 10 6 15 2 6 -3 41 -5 77 -4 82 2 81 2 115 -3 15 -2 27 0
27 5 0 5 4 6 10 3 8 -5 152 -7 220 -4 28 2 325 -12 355 -16 17 -2 55 -7 85
-10 31 -3 67 -8 80 -10 52 -11 86 -17 110 -20 22 -3 85 -18 133 -30 9 -3 27
-7 38 -10 12 -2 47 -12 78 -21 31 -9 61 -17 66 -19 6 -1 17 -5 25 -8 8 -3 44
-16 80 -28 160 -54 386 -163 542 -260 112 -70 225 -150 263 -186 8 -7 15 -13
18 -13 6 0 84 -69 164 -146 40 -38 76 -68 78 -65 3 2 5 0 5 -5 0 -5 23 -34 51
-64 59 -63 154 -179 189 -230 13 -19 27 -37 30 -40 15 -12 85 -122 153 -240
48 -84 161 -321 172 -362 2 -5 4 -10 5 -13 1 -3 3 -8 5 -12 1 -5 5 -16 9 -25
4 -9 9 -22 10 -30 2 -7 6 -20 9 -28 22 -56 71 -226 83 -290 2 -14 7 -36 10
-50 8 -35 11 -52 19 -96 3 -22 8 -55 12 -74 3 -19 7 -48 8 -65 1 -16 6 -61 9
-100 4 -38 9 -118 11 -177 4 -118 15 -152 60 -183 30 -19 44 -20 486 -20 417
0 458 2 482 18 53 34 61 60 60 176 -2 113 -9 237 -19 311 -4 25 -7 66 -8 92 0
27 -3 48 -6 48 -3 0 -5 15 -4 33 0 17 -4 38 -9 45 -5 6 -7 12 -4 12 2 0 -4 44
-14 98 -27 143 -31 163 -71 317 -5 22 -11 47 -13 55 -2 8 -4 16 -5 18 -2 1 -4
7 -5 12 -1 6 -3 11 -5 13 -1 1 -3 10 -6 20 -6 25 -10 40 -16 57 -3 8 -13 38
-23 65 -9 28 -19 57 -22 65 -3 8 -7 20 -8 25 -3 10 -53 134 -90 220 -54 128
-151 312 -237 452 -21 34 -38 65 -38 68 0 3 -5 11 -11 18 -9 10 -99 139 -141
201 -7 10 -28 37 -46 60 -17 22 -35 46 -40 51 -12 18 -105 128 -137 164 -43
49 -285 290 -326 326 -19 17 -59 50 -89 75 -30 25 -60 49 -67 55 -64 52 -164
125 -172 125 -5 0 -11 4 -13 9 -1 4 -52 41 -113 80 -60 39 -115 74 -121 79 -5
4 -26 15 -45 25 -65 35 -94 52 -99 57 -20 20 -311 154 -455 210 -158 60 -169
65 -175 65 -3 1 -50 15 -105 32 -55 18 -120 37 -145 43 -25 6 -61 15 -80 20
-19 5 -55 14 -80 19 -25 6 -56 13 -70 16 -14 3 -38 8 -55 10 -16 2 -41 6 -55
9 -46 9 -105 18 -135 21 -16 1 -55 6 -85 10 -30 4 -66 8 -80 10 -14 2 -79 7
-145 11 -139 8 -6045 12 -6097 3z"/>
<path d="M4308 10295 c-2 -2 -41 -5 -88 -9 -118 -8 -191 -15 -220 -21 -14 -3
-45 -8 -70 -11 -25 -3 -54 -8 -65 -11 -21 -4 -41 -8 -85 -17 -96 -19 -207 -51
-325 -93 -91 -33 -92 -33 -220 -94 -60 -29 -112 -51 -114 -50 -2 2 -7 -1 -10
-6 -3 -5 -24 -20 -46 -32 -66 -39 -180 -115 -183 -123 -2 -5 -10 -8 -17 -8 -7
0 -15 -3 -17 -7 -1 -5 -25 -26 -53 -48 -163 -130 -316 -291 -437 -459 -42 -59
-148 -231 -148 -241 0 -4 -9 -19 -19 -33 -10 -15 -19 -30 -20 -34 -1 -4 -14
-36 -30 -70 -15 -35 -37 -88 -49 -118 -11 -30 -23 -64 -28 -75 -4 -11 -8 -24
-10 -30 -1 -5 -12 -41 -23 -80 -12 -38 -23 -80 -26 -92 -9 -40 -15 -67 -20
-90 -11 -51 -13 -60 -20 -113 -4 -30 -9 -63 -11 -73 -23 -125 -22 -510 1 -662
5 -29 12 -73 19 -125 2 -14 9 -47 16 -75 18 -77 21 -88 26 -112 2 -12 9 -35
15 -50 6 -16 11 -30 11 -33 3 -17 36 -101 41 -107 4 -3 7 -12 7 -19 0 -14 88
-198 130 -272 54 -94 120 -189 228 -325 32 -40 278 -282 327 -322 27 -22 81
-63 120 -92 38 -29 75 -57 82 -63 7 -5 17 -10 23 -10 5 0 10 -4 10 -10 0 -5 7
-10 15 -10 8 0 15 -4 15 -10 0 -5 4 -10 9 -10 5 0 39 -18 75 -40 88 -54 212
-114 311 -152 44 -16 89 -34 100 -38 31 -13 59 -23 70 -26 6 -1 30 -7 55 -14
40 -11 132 -33 185 -45 40 -10 193 -35 240 -40 238 -26 661 -26 795 0 14 3 43
7 65 10 193 24 460 104 667 198 134 61 119 -31 119 758 0 376 0 688 0 692 -1
10 -46 -44 -124 -147 -121 -161 -270 -291 -433 -378 -94 -50 -245 -104 -349
-124 -11 -2 -31 -6 -45 -9 -40 -8 -171 -19 -225 -18 -89 0 -269 16 -295 26 -8
3 -34 8 -58 11 -108 16 -371 120 -466 185 -24 17 -49 31 -54 31 -6 0 -12 3
-14 8 -1 4 -28 25 -58 48 -86 65 -193 173 -240 244 -8 12 -20 28 -25 34 -49
52 -139 246 -171 366 -23 83 -25 93 -29 120 -2 14 -7 50 -11 80 -16 120 -9
337 15 465 25 133 146 433 184 457 7 4 8 8 4 8 -4 0 8 21 28 48 19 26 45 61
57 77 39 52 201 210 241 234 20 12 37 27 37 32 0 6 5 7 10 4 6 -3 10 -2 10 2
0 5 17 17 38 28 20 11 39 22 42 25 13 14 164 81 235 105 219 73 496 97 705 61
49 -9 137 -28 150 -33 8 -4 17 -7 20 -8 174 -53 325 -132 459 -240 102 -82
211 -193 211 -214 0 -6 3 -11 8 -11 4 0 36 -36 71 -81 35 -44 65 -78 68 -75 3
2 5 311 5 686 l-1 681 -23 19 c-18 16 -161 90 -173 90 -1 0 -20 8 -41 17 -22
9 -43 18 -49 19 -5 2 -48 17 -94 33 -46 17 -93 33 -105 36 -11 2 -57 14 -101
25 -44 11 -91 22 -105 25 -14 2 -47 8 -75 14 -27 5 -75 12 -105 16 -30 3 -73
8 -95 12 -38 5 -452 12 -457 8z"/>
<path d="M6580 7935 l0 -2363 573 1 572 2 1 780 c1 429 2 787 3 796 1 14 28
16 249 17 303 0 427 7 542 28 14 2 42 7 63 10 48 7 72 12 72 14 0 2 22 7 60
15 17 3 37 8 45 12 8 3 20 7 25 8 134 33 397 172 506 267 75 66 99 89 148 143
52 57 171 230 171 248 0 5 8 21 18 35 38 55 120 303 137 414 23 145 29 220 28
353 0 114 -7 211 -17 265 -3 14 -7 41 -10 60 -3 19 -13 62 -22 95 -9 33 -17
65 -18 70 -10 39 -29 102 -34 110 -4 6 -7 12 -8 15 -12 38 -24 66 -60 139 -49
99 -76 145 -86 149 -5 2 -8 8 -8 13 0 6 -5 15 -10 22 -6 7 -32 40 -59 74 -63
80 -159 176 -241 238 -36 28 -66 53 -68 58 -2 4 -8 7 -13 7 -5 0 -32 15 -62
34 -102 65 -321 156 -415 172 -15 2 -59 11 -99 19 -39 8 -95 17 -125 21 -29 3
-69 8 -88 11 -19 2 -425 6 -903 7 l-867 3 0 -2362z m1470 1231 c176 -11 294
-42 392 -102 40 -25 138 -120 138 -134 0 -5 6 -15 13 -22 15 -15 39 -67 58
-123 15 -44 19 -230 6 -284 -41 -175 -166 -314 -335 -370 -90 -31 -141 -35
-392 -36 l-224 0 -1 535 0 535 50 5 c57 6 157 4 295 -4z"/>
<path d="M11707 10294 c-1 -1 -31 -5 -67 -8 -84 -8 -233 -34 -268 -47 -15 -6
-29 -10 -32 -10 -3 0 -23 -5 -45 -11 -22 -6 -49 -13 -60 -15 -11 -2 -24 -8
-29 -13 -6 -6 -16 -10 -23 -10 -38 0 -331 -164 -341 -192 -2 -4 -8 -8 -13 -8
-26 0 -206 -185 -258 -265 -14 -22 -28 -42 -31 -45 -15 -12 -81 -143 -113
-220 -37 -89 -81 -256 -93 -350 -12 -95 -10 -291 3 -380 8 -47 15 -94 16 -105
2 -12 7 -27 11 -33 4 -7 9 -23 11 -35 4 -31 38 -121 48 -125 4 -2 7 -10 7 -17
0 -16 58 -124 77 -143 7 -7 13 -17 13 -21 0 -4 9 -19 21 -32 11 -13 35 -41 52
-62 52 -63 101 -107 211 -189 44 -33 93 -66 110 -75 17 -9 33 -19 36 -22 9
-11 170 -91 170 -84 0 3 8 -1 18 -9 19 -18 212 -91 447 -171 191 -65 230 -80
313 -118 35 -16 67 -29 72 -29 6 0 10 -4 10 -10 0 -5 6 -10 13 -10 19 0 97
-56 148 -106 98 -94 137 -229 109 -369 -13 -65 -49 -155 -62 -155 -4 0 -8 -6
-8 -12 0 -12 -58 -71 -106 -108 -27 -22 -111 -60 -164 -76 -217 -63 -492 -14
-708 125 -134 87 -242 215 -336 401 -27 52 -49 96 -50 97 -1 1 -31 -26 -68
-60 -72 -68 -237 -221 -298 -277 -140 -129 -239 -220 -275 -255 -23 -22 -61
-57 -84 -78 -36 -33 -40 -40 -27 -52 8 -8 24 -31 37 -52 13 -21 26 -40 29 -43
3 -3 21 -25 40 -50 19 -25 41 -53 49 -62 9 -9 43 -47 76 -85 57 -65 126 -129
269 -250 9 -7 18 -13 21 -13 3 0 17 -11 31 -25 14 -14 29 -25 35 -25 5 0 15
-5 22 -10 25 -22 122 -80 133 -80 7 0 14 -4 16 -8 5 -12 250 -124 278 -127 3
-1 21 -6 40 -12 77 -24 147 -43 175 -47 17 -2 30 -5 30 -6 0 -3 25 -7 120 -20
209 -30 551 -15 730 32 22 5 47 11 55 13 37 8 183 57 226 77 27 12 51 22 54
23 12 0 105 50 108 58 2 4 9 7 15 7 15 0 134 78 202 133 82 65 221 214 272
290 26 40 50 74 53 77 4 3 22 37 40 75 19 39 38 72 41 75 5 4 18 35 24 60 1 3
5 13 8 23 4 9 10 25 14 35 3 9 7 19 8 22 1 3 4 12 8 20 9 24 34 121 41 160 3
19 8 46 11 60 28 138 25 430 -5 564 -5 23 -11 52 -13 66 -13 72 -95 275 -139
345 -87 137 -230 294 -328 360 -25 17 -51 36 -58 43 -7 6 -17 12 -22 12 -5 0
-15 6 -22 13 -14 14 -240 128 -313 159 -81 33 -325 122 -575 208 -133 46 -287
121 -338 166 -24 20 -56 55 -70 78 -24 37 -27 51 -27 131 0 82 3 96 33 153 46
90 115 147 222 184 30 10 56 18 58 18 1 0 3 0 5 1 22 9 257 17 257 9 0 -3 16
-6 36 -8 75 -5 209 -60 302 -124 53 -36 145 -127 188 -185 16 -21 31 -40 34
-43 3 -3 16 -20 29 -37 26 -39 46 -42 62 -10 7 12 15 24 18 27 4 3 22 25 41
50 19 24 41 51 48 60 7 8 32 40 55 70 23 30 46 60 52 66 5 7 19 24 29 39 11
14 27 34 35 44 9 10 27 33 41 51 14 18 31 39 38 46 6 7 12 15 12 19 0 3 9 16
20 28 17 19 54 64 103 127 7 9 29 36 50 62 20 25 37 52 37 60 0 14 -112 125
-189 188 -24 19 -52 43 -62 53 -11 9 -21 17 -24 17 -3 0 -26 15 -52 34 -148
106 -362 205 -543 252 -30 8 -64 17 -75 20 -45 12 -171 33 -237 40 -54 6 -376
13 -381 8z"/>
<path d="M154 7968 c-31 -8 -73 -52 -75 -77 -10 -161 13 -476 55 -736 21 -127
20 -123 46 -230 12 -49 23 -99 25 -110 2 -11 9 -38 15 -60 6 -22 12 -47 15
-55 2 -8 14 -46 26 -85 12 -38 23 -75 25 -81 3 -18 44 -136 59 -169 7 -16 16
-41 20 -55 4 -14 16 -45 27 -70 11 -25 24 -54 28 -65 19 -48 182 -375 210
-420 17 -27 33 -57 37 -65 4 -8 24 -41 45 -73 21 -32 38 -61 38 -64 0 -3 14
-22 30 -43 17 -21 30 -42 30 -47 0 -5 8 -18 18 -29 10 -10 33 -41 52 -69 19
-27 40 -55 45 -61 6 -6 21 -26 35 -44 79 -105 255 -304 355 -401 138 -133 148
-142 250 -227 234 -196 474 -353 777 -510 42 -22 79 -37 83 -34 3 3 5 0 5 -6
0 -7 5 -12 11 -12 6 0 47 -16 92 -36 117 -52 398 -153 467 -169 8 -2 58 -14
110 -28 52 -14 113 -28 135 -32 22 -5 45 -9 50 -11 9 -2 135 -25 205 -38 14
-2 55 -7 92 -11 37 -3 77 -8 90 -10 76 -12 227 -16 507 -15 174 0 323 1 331 1
8 0 1401 -2 3095 -3 2995 -3 3081 -2 3115 16 58 32 104 95 107 146 1 19 2 37
3 40 1 3 2 172 2 375 1 243 -3 384 -10 410 -16 56 -78 119 -129 131 -16 4
-1547 8 -3403 9 -1856 1 -3391 5 -3410 8 -19 3 -66 9 -105 13 -38 3 -79 8 -90
10 -11 3 -36 7 -55 10 -19 2 -60 10 -90 16 -30 6 -62 12 -70 14 -98 16 -396
113 -505 164 -120 56 -217 103 -270 133 -94 53 -108 61 -123 75 -7 6 -17 12
-22 12 -5 0 -15 6 -22 13 -7 6 -43 32 -78 56 -36 25 -66 48 -68 53 -2 4 -10 8
-17 8 -8 0 -18 6 -22 13 -4 7 -26 26 -48 43 -123 91 -307 272 -431 424 -16 19
-33 38 -39 42 -5 4 -7 8 -3 8 4 0 -3 11 -15 24 -26 28 -35 39 -67 86 -13 19
-29 38 -35 42 -6 5 -6 8 0 8 6 0 6 3 -1 8 -22 15 -164 249 -164 270 0 6 -4 12
-8 14 -24 9 -158 323 -218 508 -32 98 -39 122 -49 175 -3 11 -11 47 -20 80
-16 63 -25 107 -29 140 -2 11 -6 38 -9 60 -4 22 -9 58 -13 80 -3 22 -7 54 -9
70 -6 53 -17 259 -16 293 2 50 -16 106 -44 132 l-26 24 -463 1 c-255 0 -476
-3 -492 -7z"/>
</g>
</svg>
