<svg xmlns="http://www.w3.org/2000/svg" xmlns:xlink="http://www.w3.org/1999/xlink"><symbol id="icon-burger" viewBox="0 0 40 40"><g fill="none">
<rect width="40" height="40" rx="20" fill="currentColor"/>
<path fill-rule="evenodd" clip-rule="evenodd" d="M11 13C11 12.4477 11.4477 12 12 12H28C28.5523 12 29 12.4477 29 13C29 13.5523 28.5523 14 28 14H12C11.4477 14 11 13.5523 11 13ZM11 20C11 19.4477 11.4477 19 12 19H20C20.5523 19 21 19.4477 21 20C21 20.5523 20.5523 21 20 21H12C11.4477 21 11 20.5523 11 20ZM12 26C11.4477 26 11 26.4477 11 27C11 27.5523 11.4477 28 12 28H24C24.5523 28 25 27.5523 25 27C25 26.4477 24.5523 26 24 26H12Z" fill="white"/>
</g></symbol><symbol id="icon-chat" viewBox="0 0 40 40"><g fill="none">
<rect width="40" height="40" rx="20" fill="currentColor"/>
<path fill-rule="evenodd" clip-rule="evenodd" d="M28 11.3704H12C10.9 11.3704 10.01 12.3007 10.01 13.4378L10 32.0449L14 26.8763H28C29.1 26.8763 30 25.9459 30 24.8088V13.4378C30 12.3007 29.1 11.3704 28 11.3704ZM21 22.742H15C14.45 22.742 14 22.2769 14 21.7083C14 21.1398 14.45 20.6746 15 20.6746H21C21.55 20.6746 22 21.1398 22 21.7083C22 22.2769 21.55 22.742 21 22.742ZM25 17.5734H15C14.45 17.5734 14 17.1082 14 16.5396C14 15.9711 14.45 15.5059 15 15.5059H25C25.55 15.5059 26 15.9711 26 16.5396C26 17.1082 25.55 17.5734 25 17.5734Z" fill="white"/>
<mask id="mask0_0_959" style="mask-type:luminance" maskUnits="userSpaceOnUse" x="10" y="11" width="20" height="22">
<path fill-rule="evenodd" clip-rule="evenodd" d="M28 11.3704H12C10.9 11.3704 10.01 12.3007 10.01 13.4378L10 32.0449L14 26.8763H28C29.1 26.8763 30 25.9459 30 24.8088V13.4378C30 12.3007 29.1 11.3704 28 11.3704ZM21 22.742H15C14.45 22.742 14 22.2769 14 21.7083C14 21.1398 14.45 20.6746 15 20.6746H21C21.55 20.6746 22 21.1398 22 21.7083C22 22.2769 21.55 22.742 21 22.742ZM25 17.5734H15C14.45 17.5734 14 17.1082 14 16.5396C14 15.9711 14.45 15.5059 15 15.5059H25C25.55 15.5059 26 15.9711 26 16.5396C26 17.1082 25.55 17.5734 25 17.5734Z" fill="white"/>
</mask>
<g mask="url(#mask0_0_959)">
</g>
</g></symbol><symbol id="icon-checkstatus" viewBox="0 0 40 40"><g fill="none">
<rect width="40" height="40" rx="20" fill="currentColor"/>
<path fill-rule="evenodd" clip-rule="evenodd" d="M12 11C12 10.4477 12.4477 10 13 10H27C27.5523 10 28 10.4477 28 11V28.5C27.1716 28.5 26.5001 29.1715 26.5 29.9999H25.5C25.4999 29.1715 24.8284 28.5 24 28.5C23.1716 28.5 22.5001 29.1715 22.5 29.9999H21.5C21.4999 29.1715 20.8284 28.5 20 28.5C19.1716 28.5 18.5001 29.1715 18.5 29.9999H17.5C17.4999 29.1715 16.8284 28.5 16 28.5C15.1716 28.5 14.5001 29.1715 14.5 29.9999H13.5C13.4999 29.1715 12.8284 28.5 12 28.5V11ZM21.4164 21.7884C20.5536 22.3444 19.4704 22.5936 18.3296 22.3827C16.5275 22.0472 15.0896 20.5327 14.8595 18.7114C14.4952 15.8261 16.9493 13.4201 19.8538 13.8802C21.656 14.1678 23.1035 15.644 23.4007 17.4365C23.5828 18.5485 23.324 19.5741 22.7872 20.4273L24.8961 22.5265C25.2699 22.9004 25.2699 23.5138 24.8961 23.8877C24.5126 24.2711 23.8991 24.2711 23.5253 23.8973L21.4164 21.7884ZM16.7059 18.0588C16.7059 16.76 17.76 15.7059 19.0588 15.7059C20.3576 15.7059 21.4118 16.76 21.4118 18.0588C21.4118 19.3576 20.3576 20.4118 19.0588 20.4118C17.76 20.4118 16.7059 19.3576 16.7059 18.0588Z" fill="white"/>
</g></symbol><symbol id="icon-close" viewBox="0 0 40 40"><g fill="none">
<rect width="40" height="40" rx="20" fill="currentColor"/>
<path fill-rule="evenodd" clip-rule="evenodd" d="M13.7935 12.2571C13.403 11.8666 12.7698 11.8666 12.3793 12.2571L12.2571 12.3793C11.8666 12.7698 11.8666 13.403 12.2571 13.7935L18.4636 20L12.2571 26.2065C11.8666 26.597 11.8666 27.2302 12.2571 27.6207L12.3793 27.7429C12.7698 28.1334 13.403 28.1334 13.7935 27.7429L20 21.5364L26.2065 27.7429C26.597 28.1334 27.2302 28.1334 27.6207 27.7429L27.7429 27.6207C28.1334 27.2302 28.1334 26.597 27.7429 26.2065L21.5364 20L27.7429 13.7935C28.1334 13.403 28.1334 12.7698 27.7429 12.3793L27.6207 12.2571C27.2302 11.8666 26.597 11.8666 26.2065 12.2571L20 18.4636L13.7935 12.2571Z" fill="white"/>
</g></symbol><symbol id="icon-expand" viewBox="0 0 24 24"><g fill="none">
<path fill-rule="evenodd" clip-rule="evenodd" d="M14.5001 7.50008L12.0001 10.0001L9.50008 7.50008C9.22393 7.22393 8.77622 7.22393 8.50008 7.50008C8.22393 7.77622 8.22393 8.22393 8.50008 8.50008L11.293 11.293C11.6835 11.6835 12.3167 11.6835 12.7072 11.293L15.5001 8.50008C15.7762 8.22393 15.7762 7.77622 15.5001 7.50008C15.2239 7.22393 14.7762 7.22393 14.5001 7.50008ZM14.5001 13.5001L12.0001 16.0001L9.50008 13.5001C9.22393 13.2239 8.77622 13.2239 8.50008 13.5001C8.22393 13.7762 8.22393 14.2239 8.50008 14.5001L11.293 17.293C11.6835 17.6835 12.3167 17.6835 12.7072 17.293L15.5001 14.5001C15.7762 14.2239 15.7762 13.7762 15.5001 13.5001C15.2239 13.2239 14.7762 13.2239 14.5001 13.5001Z" fill="#41F6D7"/>
</g></symbol><symbol id="icon-go" viewBox="0 0 40 40"><g fill="none">
<rect x="1" y="1" width="38" height="38" rx="19" stroke="currentColor" stroke-width="2"/>
<path fill-rule="evenodd" clip-rule="evenodd" d="M21.5 20L17.7071 16.2071C17.3166 15.8166 17.3166 15.1834 17.7071 14.7929L17.7929 14.7071C18.1834 14.3166 18.8166 14.3166 19.2071 14.7071L23.7929 19.2929C24.1834 19.6834 24.1834 20.3166 23.7929 20.7071L19.2071 25.2929C18.8166 25.6834 18.1834 25.6834 17.7929 25.2929L17.7071 25.2071C17.3166 24.8166 17.3166 24.1834 17.7071 23.7929L21.5 20Z" fill="currentColor"/>
</g></symbol><symbol id="icon-goside" viewBox="0 0 24 24"><g fill="none">
<rect width="24" height="24" rx="12" fill="currentColor"/>
<path fill-rule="evenodd" clip-rule="evenodd" d="M12.8 11.9999L9.79155 9.229C9.3641 8.83529 9.36112 8.16138 9.78509 7.76392L9.92029 7.63716C10.3032 7.27818 10.8985 7.27633 11.2836 7.63294L15.9381 11.9426C15.9715 11.9735 15.9715 12.0263 15.9381 12.0572L11.3467 16.3085C10.9261 16.698 10.2758 16.696 9.85755 16.3039C9.39446 15.8697 9.39771 15.1336 9.86462 14.7036L12.8 11.9999Z" fill="white"/>
</g></symbol><symbol id="icon-more" viewBox="0 0 24 24"><g fill="none">
<path fill-rule="evenodd" clip-rule="evenodd" d="M9.29401 15.2359C8.90847 15.6255 8.90847 16.2529 9.29401 16.6426L9.34047 16.6895C9.73184 17.0851 10.3708 17.0851 10.7622 16.6895L14.7062 12.7034C15.0917 12.3138 15.0917 11.6864 14.7062 11.2967L10.7622 7.3106C10.3708 6.91506 9.73184 6.91506 9.34047 7.3106L9.29401 7.35757C8.90847 7.74722 8.90847 8.37461 9.29401 8.76425L12.4956 12.0001L9.29401 15.2359Z" fill="currentColor"/>
</g></symbol><symbol id="icon-phone" viewBox="0 0 40 40"><g fill="none">
<rect width="40" height="40" rx="20" fill="currentColor"/>
<path fill-rule="evenodd" clip-rule="evenodd" d="M12.7602 24.0335L15.3002 23.7337C15.9102 23.6614 16.5102 23.8785 16.9402 24.323L18.7802 26.225C21.6102 24.7365 23.9302 22.3486 25.3702 19.4128L23.5202 17.5004C23.0902 17.0559 22.8802 16.4356 22.9502 15.8051L23.2402 13.2001C23.3602 12.156 24.2102 11.3704 25.2302 11.3704H26.9602C28.0902 11.3704 29.0302 12.3421 28.9602 13.5102C28.4302 22.3382 21.6002 29.3882 13.0702 29.9361C11.9402 30.0085 11.0002 29.0368 11.0002 27.8687V26.0803C10.9902 25.0362 11.7502 24.1576 12.7602 24.0335Z" fill="white"/>
</g></symbol><symbol id="icon-profile" viewBox="0 0 40 40"><g fill="none">
<rect width="40" height="40" rx="20" fill="currentColor"/>
<path d="M20.5 19.6397C22.9853 19.6397 25 17.5571 25 14.988C25 12.4189 22.9853 10.3362 20.5 10.3362C18.0147 10.3362 16 12.4189 16 14.988C16 17.5571 18.0147 19.6397 20.5 19.6397Z" fill="white"/>
<path d="M10.0166 27.5088C9.88693 28.2629 10.5352 28.9439 11.339 28.9439H28.6604C29.4902 28.9439 30.1125 28.2629 29.9829 27.5088C29.2309 23.155 25.0561 20.6741 19.9997 20.6741C14.9433 20.6741 10.7686 23.155 10.0166 27.5088Z" fill="white"/>
</g></symbol><symbol id="icon-repair" viewBox="0 0 40 40"><g fill="none">
<rect width="40" height="40" rx="20" fill="currentColor"/>
<path d="M18.2581 23.4583L18.6668 23.0494L16.95 21.3322L16.5412 21.7411L16.3368 21.5367C16.0098 21.1687 15.6828 20.9643 15.3558 21.0052C15.1105 21.0052 14.9061 21.1687 14.7426 21.414C14.4973 21.8229 14.62 22.2726 14.6608 22.5588C14.6608 22.6406 14.7017 22.6815 14.7017 22.7632C14.7017 22.8859 14.7017 23.0494 14.4156 23.0903C14.0068 23.213 13.4754 23.3356 12.944 23.6218C12.2082 24.0307 11.7176 24.3987 11.4315 24.7666C9.91902 26.7291 10.0008 28.4055 10.0008 28.4872C10.0008 28.6099 10.0417 28.6917 10.1234 28.7325L11.2271 29.8773C11.3089 29.9591 11.3906 30 11.4724 30C11.4724 30 11.5133 30 11.595 30C12.0038 30 13.4754 29.9182 15.1922 28.569C15.5601 28.2828 15.928 27.7922 16.3368 27.0562C16.623 26.5656 16.7865 26.0341 16.8682 25.5844C16.95 25.2982 17.0726 25.2982 17.1953 25.2982C17.2361 25.2982 17.3179 25.339 17.3996 25.339C17.5631 25.3799 17.7267 25.4208 17.931 25.4208C18.1354 25.4208 18.3398 25.3799 18.5442 25.2573C18.7895 25.0937 18.953 24.8893 18.9939 24.644C19.0347 24.3169 18.8712 23.9898 18.5033 23.7036L18.2581 23.4583Z" fill="white"/>
<path d="M26.884 14.8784L28.0188 14.326C28.0609 14.2835 28.1449 14.241 28.1869 14.1986L29.9101 11.8616C30.0362 11.6916 30.0362 11.4367 29.8681 11.3092L28.6913 10.1195C28.5652 9.99199 28.313 9.9495 28.1449 10.077L25.8333 11.8191C25.7913 11.8616 25.7493 11.9041 25.7072 11.989L25.1609 13.1363L21 17.2154L22.7652 19L26.884 14.8784Z" fill="white"/>
<path d="M27.8527 23.0448C26.8636 22.0036 25.4393 21.6288 24.0941 22.0036L17.6453 15.1733C17.7244 14.7985 17.764 14.4653 17.764 14.0905C17.764 13.0493 17.3683 12.0081 16.6166 11.2167C15.588 10.0923 14.045 9.71742 12.6207 10.2172C12.5416 10.2588 12.4229 10.3838 12.3833 10.5504C12.3833 10.6753 12.4229 10.8003 12.502 10.9252L14.4406 12.966C14.8758 13.4241 14.8758 14.2154 14.4406 14.6735C14.0054 15.1317 13.2537 15.1317 12.8185 14.6735L10.8799 12.6328C10.7612 12.5495 10.6425 12.5078 10.4843 12.5495C10.3656 12.5495 10.2469 12.6744 10.2073 12.7994C9.73256 14.2571 10.0886 15.8813 11.1173 16.9642C11.8294 17.7555 12.8581 18.172 13.8867 18.172C14.2032 18.172 14.5593 18.1303 14.8758 18.047L21.3642 24.8773C21.0082 26.2933 21.4038 27.7927 22.3533 28.8339C23.105 29.6252 24.0546 30 25.0832 30C25.5184 30 25.914 29.9167 26.3492 29.7918C26.4679 29.7501 26.5866 29.6252 26.6262 29.5002C26.6658 29.3753 26.6262 29.2087 26.5075 29.1254L24.5689 27.0846C24.3711 26.8764 24.2128 26.5432 24.2128 26.21C24.2128 25.8768 24.3315 25.5853 24.5689 25.3354C24.8063 25.0855 25.0832 24.9606 25.3997 24.9606C25.7162 24.9606 25.9932 25.0855 26.2306 25.3354L28.1692 27.3762C28.2879 27.4595 28.4065 27.5011 28.5252 27.5011C28.6439 27.4595 28.7626 27.3762 28.8022 27.2512C28.9209 26.8348 29 26.3766 29 25.9185C29 24.8356 28.6044 23.7944 27.8527 23.0448Z" fill="white"/>
</g></symbol><symbol id="icon-search" viewBox="0 0 40 40"><g fill="none">
<rect width="40" height="40" rx="20" fill="currentColor"/>
<path fill-rule="evenodd" clip-rule="evenodd" d="M23.5006 22.0006H22.7106L22.4306 21.7306C23.6306 20.3306 24.2506 18.4206 23.9106 16.3906C23.4406 13.6106 21.1206 11.3906 18.3206 11.0506C14.0906 10.5306 10.5306 14.0906 11.0506 18.3206C11.3906 21.1206 13.6106 23.4406 16.3906 23.9106C18.4206 24.2506 20.3306 23.6306 21.7306 22.4306L22.0006 22.7106V23.5006L26.2606 27.7506C26.6706 28.1606 27.3306 28.1606 27.7406 27.7506L27.7506 27.7406C28.1606 27.3306 28.1606 26.6706 27.7506 26.2606L23.5006 22.0006ZM17.5006 22.0006C15.0106 22.0006 13.0006 19.9906 13.0006 17.5006C13.0006 15.0106 15.0106 13.0006 17.5006 13.0006C19.9906 13.0006 22.0006 15.0106 22.0006 17.5006C22.0006 19.9906 19.9906 22.0006 17.5006 22.0006Z" fill="white"/>
</g></symbol></svg>